<svg width="186" height="52" viewBox="0 0 186 52" fill="none" xmlns="http://www.w3.org/2000/svg">
<path d="M17.5633 22.6945C17.5633 21.2802 16.8547 20.5731 15.4374 20.5731C14.0538 20.5731 12.9065 21.0829 11.9954 22.1025L9.16074 37.8406H0.555664L4.8582 14.1101H12.8559L12.2991 17.0209C14.29 14.6199 16.8041 13.4194 19.8412 13.4194C22.8782 13.4194 24.8523 14.1429 25.7635 15.5901C26.3371 16.5111 26.624 17.5636 26.624 18.7476C26.624 19.9317 26.5396 21.0335 26.3709 22.0531L25.0042 29.6509C24.9705 29.8482 24.9536 30.0291 24.9536 30.1936C24.9536 31.0816 25.4598 31.5256 26.4721 31.5256C27.2483 31.5256 27.9401 31.3612 28.5475 31.0323L28.2944 36.6072C26.7083 37.8899 24.903 38.5313 22.8782 38.5313C18.2889 38.5313 15.9942 36.6565 15.9942 32.907C15.9942 32.2492 16.0617 31.5421 16.1967 30.7856L17.4115 24.2239C17.5127 23.6319 17.5633 23.1221 17.5633 22.6945Z" fill="#62656D"/>
<path d="M55.9145 30.2429C55.9145 31.098 56.3531 31.5256 57.2305 31.5256C58.1417 31.5256 58.9009 31.3612 59.5083 31.0323L59.2552 36.6072C57.6355 37.8899 55.8132 38.5313 53.7885 38.5313C49.9753 38.5313 47.8999 37.1006 47.5625 34.2391C45.5377 37.1006 42.8044 38.5313 39.3623 38.5313C35.9541 38.5313 33.7437 37.7748 32.7314 36.2619C32.0565 35.308 31.719 34.2226 31.719 33.0057C31.719 31.7887 31.8202 30.6705 32.0227 29.6509L34.8573 14.1101H43.4624L41.0834 27.2334C40.9821 27.8254 40.9315 28.4175 40.9315 29.0095C40.9315 30.5882 41.8426 31.3776 43.6649 31.3776C45.1834 31.3776 46.3983 30.8678 47.3094 29.8482L50.1946 14.1101H58.7997L55.9651 29.6509C55.9313 29.8482 55.9145 30.0455 55.9145 30.2429Z" fill="#62656D"/>
<path d="M72.8834 38.5313C65.8643 38.5313 62.3548 36.1632 62.3548 31.4269C62.3548 30.7691 62.4223 30.062 62.5573 29.3055L63.6203 23.1879C64.1939 20.0304 65.6787 17.6129 68.0747 15.9355C70.5043 14.2252 73.7101 13.37 77.6921 13.37C84.4749 13.37 87.8663 15.8697 87.8663 20.8691C87.8663 21.5927 87.7988 22.382 87.6639 23.2372L87.0564 26.74H71.6179L71.4155 27.8748C71.348 28.2694 71.3142 28.6312 71.3142 28.9602C71.3142 30.7691 72.4109 31.6736 74.6044 31.6736C75.4143 31.6736 76.1061 31.4269 76.6797 30.9336C77.2534 30.4402 77.5909 29.8646 77.6921 29.2068L86.0947 29.3055C84.9811 35.456 80.5773 38.5313 72.8834 38.5313ZM78.9575 23.7306C79.0925 23.1714 79.16 22.6616 79.16 22.2011C79.16 21.7078 78.9407 21.2144 78.502 20.7211C78.0633 20.2277 77.3546 19.981 76.376 19.981C75.4312 19.981 74.5538 20.2935 73.7439 20.9184C72.9677 21.5433 72.4278 22.4807 72.1241 23.7306H78.9575Z" fill="#62656D"/>
<path d="M94.8208 51.5066H84.2416L109.348 0.34535H119.877L94.8208 51.5066Z" fill="#62656D"/>
<path d="M115.238 52C114.327 52 113.483 51.8355 112.707 51.5066C111.897 51.2106 111.324 50.8982 110.986 50.5693L110.48 50.0759L112.252 44.501C112.657 44.8299 113.298 44.9943 114.175 44.9943C115.356 44.9943 116.065 44.3694 116.301 43.1195L121.565 14.1101H130.17L124.704 44.2543C124.265 46.6224 123.32 48.4972 121.869 49.8786C120.452 51.2929 118.241 52 115.238 52ZM122.476 6.06831C122.476 3.96331 122.949 2.4339 123.894 1.48007C124.872 0.493358 126.374 0 128.399 0C131.233 0 132.651 1.21695 132.651 3.65085C132.651 5.72296 132.161 7.23593 131.183 8.18975C130.204 9.14358 128.702 9.62049 126.678 9.62049C123.877 9.62049 122.476 8.43643 122.476 6.06831Z" fill="#62656D"/>
<path d="M146.8 13.4194C150.445 13.4194 153.195 14.1923 155.051 15.7381C156.502 16.9551 157.227 18.649 157.227 20.8197C157.227 21.5433 157.143 22.3327 156.974 23.1879L155.911 28.9602C155.27 32.4466 153.768 34.9133 151.406 36.3605C149.078 37.8077 145.956 38.5313 142.042 38.5313C138.127 38.5313 135.259 37.8077 133.437 36.3605C132.087 35.2751 131.412 33.6471 131.412 31.4763C131.412 30.7198 131.496 29.8811 131.665 28.9602L132.728 23.1879C133.909 16.6755 138.6 13.4194 146.8 13.4194ZM148.167 24.1746C148.234 23.8457 148.268 23.4345 148.268 22.9412C148.268 22.4149 148.049 21.8393 147.61 21.2144C147.171 20.5895 146.395 20.277 145.281 20.277C144.202 20.277 143.29 20.6388 142.548 21.3624C141.806 22.0531 141.333 22.9905 141.131 24.1746L140.473 27.8748C140.405 28.2037 140.372 28.6312 140.372 29.1575C140.372 29.6509 140.591 30.1935 141.03 30.7856C141.468 31.3776 142.228 31.6736 143.307 31.6736C144.421 31.6736 145.349 31.3118 146.091 30.5882C146.834 29.8318 147.306 28.9273 147.509 27.8748L148.167 24.1746Z" fill="#62656D"/>
<path d="M170.462 38.5313C163.443 38.5313 159.933 36.1632 159.933 31.4269C159.933 30.7691 160.001 30.062 160.136 29.3055L161.199 23.1879C161.772 20.0304 163.257 17.6129 165.653 15.9355C168.083 14.2252 171.288 13.37 175.27 13.37C182.053 13.37 185.445 15.8697 185.445 20.8691C185.445 21.5927 185.377 22.382 185.242 23.2372L184.635 26.74H169.196L168.994 27.8748C168.926 28.2694 168.892 28.6312 168.892 28.9602C168.892 30.7691 169.989 31.6736 172.183 31.6736C172.993 31.6736 173.684 31.4269 174.258 30.9336C174.832 30.4402 175.169 29.8646 175.27 29.2068L183.673 29.3055C182.559 35.456 178.156 38.5313 170.462 38.5313ZM176.536 23.7306C176.671 23.1714 176.738 22.6616 176.738 22.2011C176.738 21.7078 176.519 21.2144 176.08 20.7211C175.642 20.2277 174.933 19.981 173.954 19.981C173.009 19.981 172.132 20.2935 171.322 20.9184C170.546 21.5433 170.006 22.4807 169.702 23.7306H176.536Z" fill="#62656D"/>
</svg>
