<svg width="106" height="30" viewBox="0 0 106 30" fill="none" xmlns="http://www.w3.org/2000/svg">
<path d="M9.7508 13.093C9.7508 12.277 9.34451 11.8691 8.53195 11.8691C7.73873 11.8691 7.08093 12.1632 6.55857 12.7514L4.93344 21.8311H0L2.46672 8.14042H7.05191L6.73269 9.81973C7.87415 8.43453 9.31549 7.74193 11.0567 7.74193C12.7979 7.74193 13.9297 8.15939 14.4521 8.99431C14.781 9.52562 14.9454 10.1328 14.9454 10.8159C14.9454 11.4991 14.897 12.1347 14.8003 12.723L14.0168 17.1063C13.9974 17.2201 13.9877 17.3245 13.9877 17.4194C13.9877 17.9317 14.278 18.1879 14.8584 18.1879C15.3033 18.1879 15.6999 18.093 16.0482 17.9032L15.9031 21.1195C14.9938 21.8596 13.9587 22.2296 12.7979 22.2296C10.1668 22.2296 8.85117 21.148 8.85117 18.9848C8.85117 18.6053 8.88986 18.1973 8.96725 17.7609L9.66373 13.9753C9.72178 13.6338 9.7508 13.3397 9.7508 13.093Z" fill="white"/>
<path d="M31.7382 17.4478C31.7382 17.9412 31.9897 18.1879 32.4927 18.1879C33.015 18.1879 33.4503 18.093 33.7986 17.9032L33.6535 21.1195C32.7248 21.8596 31.6801 22.2296 30.5193 22.2296C28.3331 22.2296 27.1433 21.4042 26.9498 19.7533C25.789 21.4042 24.2219 22.2296 22.2485 22.2296C20.2945 22.2296 19.0273 21.7932 18.4469 20.9203C18.0599 20.37 17.8665 19.7438 17.8665 19.0417C17.8665 18.3397 17.9245 17.6945 18.0406 17.1063L19.6657 8.14042H24.5992L23.2352 15.7116C23.1772 16.0531 23.1482 16.3947 23.1482 16.7362C23.1482 17.6471 23.6705 18.1025 24.7153 18.1025C25.5859 18.1025 26.2823 17.8083 26.8047 17.2201L28.4589 8.14042H33.3923L31.7672 17.1063C31.7478 17.2201 31.7382 17.334 31.7382 17.4478Z" fill="white"/>
<path d="M41.4667 22.2296C37.4426 22.2296 35.4305 20.8634 35.4305 18.1309C35.4305 17.7514 35.4692 17.3435 35.5466 16.907L36.156 13.3776C36.4849 11.556 37.3362 10.1613 38.7098 9.19355C40.1028 8.20683 41.9407 7.71347 44.2237 7.71347C48.1124 7.71347 50.0567 9.1556 50.0567 12.0398C50.0567 12.4573 50.018 12.9127 49.9406 13.4061L49.5924 15.4269H40.7412L40.6251 16.0816C40.5864 16.3093 40.5671 16.518 40.5671 16.7078C40.5671 17.7514 41.1959 18.2732 42.4534 18.2732C42.9177 18.2732 43.3143 18.1309 43.6432 17.8463C43.9721 17.5617 44.1656 17.2296 44.2237 16.8501L49.041 16.907C48.4026 20.4554 45.8778 22.2296 41.4667 22.2296ZM44.9492 13.6907C45.0265 13.3681 45.0652 13.074 45.0652 12.8083C45.0652 12.5237 44.9395 12.2391 44.688 11.9545C44.4365 11.6698 44.0302 11.5275 43.4691 11.5275C42.9274 11.5275 42.4244 11.7078 41.9601 12.0683C41.5151 12.4288 41.2055 12.9696 41.0314 13.6907H44.9492Z" fill="white"/>
<path d="M54.0438 29.7154H47.9786L62.3726 0.19924H68.4088L54.0438 29.7154Z" fill="white"/>
<path d="M65.7494 30C65.227 30 64.7434 29.9051 64.2984 29.7154C63.8341 29.5446 63.5052 29.3643 63.3117 29.1746L63.0215 28.8899L64.0372 25.6736C64.2694 25.8634 64.637 25.9583 65.14 25.9583C65.8171 25.9583 66.2234 25.5977 66.3588 24.8767L69.3769 8.14042H74.3104L71.1762 25.5313C70.9247 26.8975 70.383 27.9791 69.551 28.7761C68.7385 29.592 67.4713 30 65.7494 30ZM69.8993 3.50095C69.8993 2.28653 70.1701 1.40417 70.7119 0.853889C71.2729 0.284629 72.1339 0 73.2947 0C74.9198 0 75.7324 0.702087 75.7324 2.10626C75.7324 3.30171 75.4518 4.17457 74.8908 4.72486C74.3297 5.27514 73.4688 5.55028 72.308 5.55028C70.7022 5.55028 69.8993 4.86717 69.8993 3.50095Z" fill="white"/>
<path d="M83.8444 7.74193C85.9339 7.74193 87.5106 8.18786 88.5747 9.0797C89.4066 9.78178 89.8226 10.759 89.8226 12.0114C89.8226 12.4288 89.7742 12.8842 89.6775 13.3776L89.0681 16.7078C88.7005 18.7192 87.8395 20.1423 86.4853 20.9772C85.1503 21.8121 83.3608 22.2296 81.1165 22.2296C78.8723 22.2296 77.2278 21.8121 76.1831 20.9772C75.4092 20.351 75.0223 19.4118 75.0223 18.1594C75.0223 17.723 75.0706 17.2391 75.1674 16.7078L75.7768 13.3776C76.4539 9.62049 79.1431 7.74193 83.8444 7.74193ZM84.628 13.9469C84.6667 13.7571 84.686 13.5199 84.686 13.2353C84.686 12.9317 84.5602 12.5996 84.3087 12.2391C84.0572 11.8786 83.6123 11.6983 82.9738 11.6983C82.3547 11.6983 81.8323 11.907 81.4067 12.3245C80.9811 12.723 80.7102 13.2638 80.5942 13.9469L80.2169 16.0816C80.1782 16.2713 80.1589 16.518 80.1589 16.8216C80.1589 17.1063 80.2846 17.4194 80.5361 17.7609C80.7876 18.1025 81.2229 18.2732 81.842 18.2732C82.4805 18.2732 83.0125 18.0645 83.4381 17.6471C83.8638 17.2106 84.1346 16.6888 84.2507 16.0816L84.628 13.9469Z" fill="white"/>
<path d="M97.41 22.2296C93.3859 22.2296 91.3738 20.8634 91.3738 18.1309C91.3738 17.7514 91.4125 17.3435 91.4899 16.907L92.0993 13.3776C92.4282 11.556 93.2795 10.1613 94.6531 9.19355C96.0461 8.20683 97.884 7.71347 100.167 7.71347C104.056 7.71347 106 9.1556 106 12.0398C106 12.4573 105.961 12.9127 105.884 13.4061L105.536 15.4269H96.6845L96.5684 16.0816C96.5297 16.3093 96.5104 16.518 96.5104 16.7078C96.5104 17.7514 97.1392 18.2732 98.3967 18.2732C98.861 18.2732 99.2576 18.1309 99.5865 17.8463C99.9154 17.5617 100.109 17.2296 100.167 16.8501L104.984 16.907C104.346 20.4554 101.821 22.2296 97.41 22.2296ZM100.892 13.6907C100.97 13.3681 101.009 13.074 101.009 12.8083C101.009 12.5237 100.883 12.2391 100.631 11.9545C100.38 11.6698 99.9735 11.5275 99.4124 11.5275C98.8707 11.5275 98.3677 11.7078 97.9034 12.0683C97.4584 12.4288 97.1488 12.9696 96.9747 13.6907H100.892Z" fill="white"/>
</svg>
